<svg width="155" height="156" viewBox="0 0 155 156" fill="none" xmlns="http://www.w3.org/2000/svg">
<path d="M75 1C89.39 0.999999 106.492 5.03236 118.707 12.6398C130.921 20.2472 140.76 31.1251 147.107 44.04C153.453 56.9548 156.054 71.3897 154.613 85.7074C153.173 100.025 147.749 113.653 138.957 125.045L78 78L75 1Z" fill="#CCF1E5"/>
<path d="M138.957 125.045C131.055 135.285 120.699 143.369 108.848 148.551C96.9963 153.733 84.0302 155.846 71.1466 154.694C58.263 153.543 45.877 149.165 35.132 141.964C24.387 134.762 15.6292 124.97 9.66718 113.491C3.70514 102.012 0.730933 89.2163 1.01911 76.2845C1.30729 63.3528 4.84857 50.702 11.3161 39.5C17.7835 28.298 26.9688 18.9058 38.0239 12.1903C49.0791 5.47489 61.6478 1.65265 74.5699 1.07644L78 78L138.957 125.045Z" fill="#D4EAFE" stroke="#2A96FA"/>
</svg>
