<svg width="80" height="80" viewBox="0 0 80 80" fill="none" xmlns="http://www.w3.org/2000/svg">
<g filter="url(#filter0_d_34_600)">
<rect x="9" y="8" width="62" height="62" rx="31" fill="white" shape-rendering="crispEdges"/>
<path d="M48.8227 37.3123C48.9375 37.9148 49 38.5447 49 39.2021C49 44.3439 45.4883 48 40.1843 48C38.9781 48.0004 37.7836 47.7678 36.6692 47.3156C35.5547 46.8635 34.5421 46.2006 33.6892 45.3648C32.8363 44.529 32.1598 43.5367 31.6984 42.4446C31.2369 41.3525 30.9996 40.182 31 39C30.9996 37.818 31.2369 36.6475 31.6984 35.5554C32.1598 34.4633 32.8363 33.471 33.6892 32.6352C34.5421 31.7994 35.5547 31.1365 36.6692 30.6844C37.7836 30.2322 38.9781 29.9996 40.1843 30C42.6641 30 44.7363 30.8941 46.3261 32.346L43.7371 34.8831V34.8767C42.7733 33.977 41.5501 33.5153 40.1843 33.5153C37.1539 33.5153 34.6909 36.0241 34.6909 38.9945C34.6909 41.964 37.1539 44.4783 40.1843 44.4783C42.9338 44.4783 44.8053 42.9377 45.1897 40.8221H40.1843V37.3123H48.8237H48.8227Z" fill="#747875"/>
</g>
<defs>
<filter id="filter0_d_34_600" x="0" y="0" width="80" height="80" filterUnits="userSpaceOnUse" color-interpolation-filters="sRGB">
<feFlood flood-opacity="0" result="BackgroundImageFix"/>
<feColorMatrix in="SourceAlpha" type="matrix" values="0 0 0 0 0 0 0 0 0 0 0 0 0 0 0 0 0 0 127 0" result="hardAlpha"/>
<feOffset dy="1"/>
<feGaussianBlur stdDeviation="4.5"/>
<feComposite in2="hardAlpha" operator="out"/>
<feColorMatrix type="matrix" values="0 0 0 0 0 0 0 0 0 0 0 0 0 0 0 0 0 0 0.14 0"/>
<feBlend mode="normal" in2="BackgroundImageFix" result="effect1_dropShadow_34_600"/>
<feBlend mode="normal" in="SourceGraphic" in2="effect1_dropShadow_34_600" result="shape"/>
</filter>
</defs>
</svg>
