<svg width="18" height="18" viewBox="0 0 18 18" fill="none" xmlns="http://www.w3.org/2000/svg">
<path fill-rule="evenodd" clip-rule="evenodd" d="M3.33628 2.06368C3.16653 1.89973 2.93919 1.80902 2.70321 1.81107C2.46724 1.81312 2.24151 1.90777 2.07464 2.07464C1.90777 2.24151 1.81312 2.46724 1.81107 2.70321C1.80902 2.93919 1.89973 3.16653 2.06368 3.33628L14.6637 15.9363C14.8334 16.1002 15.0608 16.1909 15.2967 16.1889C15.5327 16.1868 15.7584 16.0922 15.9253 15.9253C16.0922 15.7584 16.1868 15.5327 16.1889 15.2967C16.1909 15.0608 16.1002 14.8334 15.9363 14.6637L14.6106 13.338C16.0124 12.2203 17.0489 10.7099 17.5878 8.99998C16.4412 5.34868 13.0302 2.69998 8.99998 2.69998C7.58916 2.69806 6.19783 3.02924 4.93918 3.66658L3.33718 2.06368H3.33628ZM7.17118 5.89768L8.53378 7.26118C8.83896 7.18013 9.16007 7.18067 9.46498 7.26273C9.76989 7.3448 10.0479 7.50551 10.2712 7.72878C10.4944 7.95206 10.6552 8.23006 10.7372 8.53497C10.8193 8.83988 10.8198 9.16099 10.7388 9.46618L12.1014 10.8288C12.5073 10.1412 12.6731 9.33819 12.5727 8.54608C12.4723 7.75398 12.1114 7.01772 11.5468 6.45314C10.9822 5.88855 10.246 5.52768 9.45387 5.42729C8.66176 5.3269 7.85876 5.49269 7.17118 5.89858V5.89768Z" fill="#BFC9C3"/>
<path d="M11.2086 15.0273L8.77503 12.5928C7.89995 12.5379 7.07496 12.1656 6.45488 11.5457C5.83481 10.9258 5.46229 10.1009 5.40723 9.22587L2.10153 5.92017C1.34122 6.82558 0.767146 7.87219 0.412231 8.99997C1.55883 12.6513 4.97073 15.3 9.00003 15.3C9.76233 15.3 10.5021 15.2055 11.2086 15.0273Z" fill="#BFC9C3"/>
</svg>
