<svg width="18" height="21" viewBox="0 0 18 21" fill="none" xmlns="http://www.w3.org/2000/svg">
<path d="M16.5 5.24176H14.4285C14.9132 4.52018 15.0999 3.63902 14.9495 2.78286C14.799 1.9267 14.3231 1.16197 13.6215 0.648849C12.9198 0.135729 12.0468 -0.0859685 11.1853 0.0301945C10.3238 0.146357 9.5407 0.591369 9 1.27201C8.4593 0.591369 7.67619 0.146357 6.81471 0.0301945C5.95323 -0.0859685 5.08022 0.135729 4.37855 0.648849C3.67687 1.16197 3.20097 1.9267 3.05053 2.78286C2.90009 3.63902 3.08678 4.52018 3.5715 5.24176H1.5C1.1023 5.24216 0.720997 5.40032 0.439779 5.68154C0.15856 5.96276 0.000397108 6.34406 0 6.74176V9.74176C0.000397108 10.1395 0.15856 10.5208 0.439779 10.802C0.720997 11.0832 1.1023 11.2414 1.5 11.2418V18.7418C1.5004 19.1395 1.65856 19.5208 1.93978 19.802C2.221 20.0832 2.6023 20.2414 3 20.2418H15C15.3977 20.2414 15.779 20.0832 16.0602 19.802C16.3414 19.5208 16.4996 19.1395 16.5 18.7418V11.2418C16.8977 11.2414 17.279 11.0832 17.5602 10.802C17.8414 10.5208 17.9996 10.1395 18 9.74176V6.74176C17.9996 6.34406 17.8414 5.96276 17.5602 5.68154C17.279 5.40032 16.8977 5.24216 16.5 5.24176ZM9.75 3.36676C9.75 2.99592 9.85997 2.63341 10.066 2.32507C10.272 2.01673 10.5649 1.7764 10.9075 1.63449C11.2501 1.49257 11.6271 1.45544 11.9908 1.52779C12.3545 1.60014 12.6886 1.77871 12.9508 2.04094C13.213 2.30316 13.3916 2.63725 13.464 3.00097C13.5363 3.36468 13.4992 3.74168 13.3573 4.08429C13.2154 4.42691 12.975 4.71974 12.6667 4.92577C12.3584 5.1318 11.9958 5.24176 11.625 5.24176H9.75V3.36676ZM6.375 1.49176C6.8721 1.49236 7.34867 1.69009 7.70017 2.0416C8.05167 2.3931 8.2494 2.86966 8.25 3.36676V5.24176H6.375C5.87772 5.24176 5.40081 5.04422 5.04917 4.69259C4.69754 4.34096 4.5 3.86404 4.5 3.36676C4.5 2.86948 4.69754 2.39257 5.04917 2.04094C5.40081 1.68931 5.87772 1.49176 6.375 1.49176ZM1.5 6.74176H8.25V9.74176H1.5V6.74176ZM3 11.2418H8.25V18.7418H3V11.2418ZM15.0007 18.7418H9.75V11.2418H15L15.0007 18.7418ZM9.75 9.74176V6.74176H16.5L16.5007 9.74176H9.75Z" fill="#0076E3"/>
</svg>
