<svg width="104" height="104" viewBox="0 0 104 104" fill="none" xmlns="http://www.w3.org/2000/svg">
<path d="M50.0076 0.470775C59.6348 0.470775 71.0764 3.16851 79.2483 8.258C87.4202 13.3475 94.0024 20.6251 98.2484 29.2654C102.494 37.9056 104.234 47.5628 103.271 57.1417C102.307 66.7205 98.6783 75.8377 92.7964 83.4591L52.0147 51.9853L50.0076 0.470775Z" fill="#CCF1E5"/>
<path d="M92.7964 83.4591C87.5092 90.3098 80.5814 95.7183 72.6525 99.1852C64.7235 102.652 56.049 104.066 47.4296 103.295C38.8102 102.525 30.5237 99.5959 23.3351 94.7782C16.1465 89.9604 10.2874 83.4093 6.29866 75.7296C2.30993 68.05 0.32013 59.4892 0.512928 50.8376C0.705725 42.186 3.07491 33.7224 7.40178 26.228C11.7287 18.7337 17.8738 12.4501 25.2699 7.95733C32.666 3.46456 41.0747 0.907408 49.7199 0.521913L52.0147 51.9853L92.7964 83.4591Z" fill="#D4EAFE" stroke="#2A96FA"/>
</svg>
