<svg width="18" height="18" viewBox="0 0 18 18" fill="none" xmlns="http://www.w3.org/2000/svg">
<g clip-path="url(#clip0_0_37)">
<path d="M1.79997 17.0997H10.4578C10.9772 17.1 11.4905 16.9878 11.9623 16.7707C12.4341 16.5537 12.8533 16.237 13.1911 15.8425L17.7828 10.4857C17.879 10.3738 17.9461 10.2399 17.9783 10.0958C18.0105 9.95179 18.0068 9.80205 17.9675 9.65978C17.9282 9.51752 17.8545 9.38711 17.7529 9.28003C17.6514 9.17295 17.525 9.0925 17.385 9.04576L15.6138 8.45537C15.1858 8.31623 14.73 8.28474 14.2869 8.3637C13.8437 8.44266 13.4269 8.62963 13.0732 8.90806L10.2067 11.2003L9.65144 10.0888C9.35396 9.48971 8.89465 8.98584 8.32553 8.63431C7.75641 8.28279 7.10022 8.09765 6.4313 8.09988H1.79997C0.807287 8.09988 0 8.90716 0 9.89985V15.2998C0 16.2924 0.807287 17.0997 1.79997 17.0997ZM1.79997 9.89985H6.4313C7.11799 9.89985 7.73448 10.2805 8.04137 10.8943L8.44366 11.6998H4.49993V13.4998H9.91244C10.0509 13.498 10.1871 13.4641 10.3102 13.4008L10.3129 13.3999L10.3165 13.3981H10.3192L10.321 13.3972H10.3246L10.3255 13.3963C10.3336 13.399 10.3282 13.3954 10.3282 13.3954C10.3372 13.3954 10.33 13.3945 10.33 13.3945H10.3309L10.3327 13.3936L10.3354 13.3927L10.3372 13.3918L10.339 13.3909L10.3417 13.39L10.3435 13.3891C10.3462 13.3891 10.3444 13.3882 10.3453 13.3882L10.348 13.3864L10.3498 13.3855L10.3516 13.3846L10.3543 13.3837L10.3561 13.3828H10.357L10.3588 13.3819H10.3597L10.3615 13.381L10.3633 13.3801C10.3714 13.3792 10.366 13.3792 10.366 13.3792L10.3678 13.3783C10.4025 13.3574 10.4356 13.3339 10.4668 13.3081L14.1982 10.3228C14.434 10.1356 14.7589 10.0771 15.0442 10.1725L15.5455 10.3399L11.8258 14.6806C11.6547 14.8749 11.4443 15.0305 11.2084 15.1373C10.9726 15.244 10.7167 15.2994 10.4578 15.2998H1.79997V9.89985ZM12.5998 8.46499e-06H12.5845C12.4378 0.00180844 11.6791 0.0351078 10.7998 0.634498C9.94394 0.0513076 9.20325 0.00450833 9.02865 0.000908385L9.00165 8.46499e-06H8.99806C8.27717 8.46499e-06 7.59858 0.281704 7.09099 0.790196C6.58159 1.30049 6.2999 1.97818 6.2999 2.69996C6.2999 3.42175 6.58159 4.09944 7.07479 4.59353L10.1473 7.82088C10.2319 7.90864 10.3333 7.97843 10.4454 8.02607C10.5576 8.07371 10.6782 8.09822 10.8 8.09814C10.9219 8.09806 11.0424 8.07338 11.1545 8.02558C11.2666 7.97778 11.3679 7.90786 11.4523 7.81998L14.5087 4.60883C15.019 4.09944 15.2998 3.42175 15.2998 2.69996C15.2998 1.97818 15.0181 1.30049 14.5096 0.791096C14.2597 0.53959 13.9624 0.340166 13.6348 0.204373C13.3073 0.06858 12.9561 -0.00088258 12.6016 8.46499e-06H12.5998ZM13.4998 2.69996C13.4998 2.94026 13.4062 3.16616 13.2199 3.35245L10.7998 5.89491L8.36357 3.33625C8.19347 3.16616 8.09987 2.94026 8.09987 2.69996C8.09987 2.45967 8.19347 2.23377 8.36446 2.06277C8.52721 1.89723 8.74882 1.80276 8.98096 1.79998C9.00346 1.80088 9.43275 1.82878 9.94124 2.23647C10.0141 2.29497 10.0879 2.36157 10.1635 2.43627L10.7998 3.07256L11.4361 2.43627C11.5117 2.36157 11.5855 2.29497 11.6584 2.23647C12.1345 1.85398 12.5368 1.80628 12.6052 1.80088C12.7225 1.80086 12.8386 1.82407 12.9469 1.86917C13.0552 1.91428 13.1535 1.98039 13.2361 2.06368C13.4062 2.23377 13.4998 2.45967 13.4998 2.69996Z" fill="#FF7AE2"/>
</g>
<defs>
<clipPath id="clip0_0_37">
<rect width="18" height="17.0997" fill="white"/>
</clipPath>
</defs>
</svg>
