<svg width="18" height="24" viewBox="0 0 18 24" fill="none" xmlns="http://www.w3.org/2000/svg">
<path d="M2 0.857143C2 0.629814 1.89464 0.411797 1.70711 0.251051C1.51957 0.0903058 1.26522 0 1 0C0.734784 0 0.48043 0.0903058 0.292893 0.251051C0.105357 0.411797 1.04228e-07 0.629814 1.04228e-07 0.857143V6C-0.000235151 6.98799 0.397783 7.9457 1.12669 8.71106C1.8556 9.47642 2.87064 10.0024 4 10.2V23.1429C4 23.3702 4.10536 23.5882 4.29289 23.7489C4.48043 23.9097 4.73478 24 5 24C5.26522 24 5.51957 23.9097 5.70711 23.7489C5.89464 23.5882 6 23.3702 6 23.1429V10.2C7.12936 10.0024 8.1444 9.47642 8.87331 8.71106C9.60222 7.9457 10.0002 6.98799 10 6V0.857143C10 0.629814 9.89464 0.411797 9.70711 0.251051C9.51957 0.0903058 9.26522 0 9 0C8.73478 0 8.48043 0.0903058 8.29289 0.251051C8.10536 0.411797 8 0.629814 8 0.857143V6C8.00033 6.53199 7.80814 7.05097 7.44994 7.48541C7.09174 7.91986 6.58516 8.24839 6 8.42571V0.857143C6 0.629814 5.89464 0.411797 5.70711 0.251051C5.51957 0.0903058 5.26522 0 5 0C4.73478 0 4.48043 0.0903058 4.29289 0.251051C4.10536 0.411797 4 0.629814 4 0.857143V8.42571C3.41484 8.24839 2.90826 7.91986 2.55006 7.48541C2.19186 7.05097 1.99967 6.53199 2 6V0.857143ZM16 23.1429V12H13C12.7348 12 12.4804 11.9097 12.2929 11.7489C12.1054 11.5882 12 11.3702 12 11.1429V4.28571C12 3.14914 12.652 2.08629 13.542 1.32171C14.434 0.558857 15.674 0 17 0C17.2652 0 17.5196 0.0903058 17.7071 0.251051C17.8946 0.411797 18 0.629814 18 0.857143V23.1429C18 23.3702 17.8946 23.5882 17.7071 23.7489C17.5196 23.9097 17.2652 24 17 24C16.7348 24 16.4804 23.9097 16.2929 23.7489C16.1054 23.5882 16 23.3702 16 23.1429Z" fill="#50D244"/>
</svg>
