<svg width="18" height="17" viewBox="0 0 18 17" fill="none" xmlns="http://www.w3.org/2000/svg">
<g clip-path="url(#clip0_0_49)">
<path d="M14.1488 4.12327L11.945 0.856974C11.7816 0.615394 11.5645 0.41723 11.3116 0.278904C11.0588 0.140578 10.7774 0.0660727 10.4909 0.0615614L6.30863 0H6.3C4.14079 0 2.48411 0.370562 1.41713 2.17904C0.42375 3.86244 0 6.73001 0 11.7673V12.3829H1.37089L0.4884 17H1.71127L2.59376 12.3829H3C3.97994 12.3919 4.924 12.005 5.6283 11.3059C6.26501 10.6808 6.72428 9.82563 6.95651 8.83287L6.95861 8.82395L7.98773 3.76429H6.76185L5.78764 8.55408C5.49094 9.81147 4.60372 11.1517 3 11.1517H1.20225C1.23484 6.79365 1.62158 4.20988 2.44369 2.81647C3.13369 1.64681 4.14225 1.23161 6.29584 1.23104L10.4736 1.2926C10.5691 1.29409 10.6629 1.31892 10.7472 1.36503C10.8315 1.41114 10.9039 1.4772 10.9583 1.55774L13.4513 5.25215L16.8 5.82483V6.47734L16.2416 9.53313C16.0767 10.435 15.795 10.8894 14.6396 11.0318L9.90315 11.8632L9.87184 17H11.0718L11.0968 12.9026L14.7981 12.2523C15.6366 12.1466 16.2552 11.8693 16.6891 11.405C17.0599 11.008 17.2857 10.5008 17.421 9.76007L18 6.59177V4.78182L14.1488 4.12327Z" fill="#625D92"/>
</g>
<defs>
<clipPath id="clip0_0_49">
<rect width="18" height="17" fill="white"/>
</clipPath>
</defs>
</svg>
