<svg width="18" height="21" viewBox="0 0 18 21" fill="none" xmlns="http://www.w3.org/2000/svg">
<g clip-path="url(#clip0_0_29)">
<path d="M5.47826 9.3913C4.44046 9.3913 3.44516 8.97903 2.71132 8.2452C1.97748 7.51136 1.56522 6.51606 1.56522 5.47826V2.34782C1.56522 2.14026 1.64767 1.9412 1.79444 1.79444C1.94121 1.64767 2.14026 1.56522 2.34783 1.56522H3.13043C3.33799 1.56522 3.53705 1.48276 3.68382 1.336C3.83059 1.18923 3.91304 0.990169 3.91304 0.782608C3.91304 0.575048 3.83059 0.375988 3.68382 0.229221C3.53705 0.0824531 3.33799 0 3.13043 0H2.34783C1.72514 0 1.12796 0.247359 0.687662 0.687662C0.24736 1.12796 0 1.72514 0 2.34782V5.47826C0.00100598 6.3624 0.216604 7.23308 0.628278 8.01554C1.03995 8.79799 1.6354 9.46882 2.36348 9.97043C3.06299 10.5871 3.63029 11.3392 4.03113 12.1812C4.43196 13.0232 4.65802 13.9378 4.69565 14.8696C4.69565 16.3225 5.27282 17.7159 6.3002 18.7433C7.32757 19.7706 8.72098 20.3478 10.1739 20.3478C11.6268 20.3478 13.0203 19.7706 14.0476 18.7433C15.075 17.7159 15.6522 16.3225 15.6522 14.8696V13.9774C16.3899 13.7869 17.0328 13.3339 17.4605 12.7033C17.8881 12.0727 18.071 11.3078 17.975 10.5519C17.879 9.79605 17.5107 9.10116 16.939 8.59748C16.3673 8.0938 15.6315 7.81592 14.8696 7.81592C14.1076 7.81592 13.3719 8.0938 12.8002 8.59748C12.2285 9.10116 11.8601 9.79605 11.7641 10.5519C11.6681 11.3078 11.851 12.0727 12.2787 12.7033C12.7063 13.3339 13.3492 13.7869 14.087 13.9774V14.8696C14.087 15.9074 13.6747 16.9027 12.9408 17.6365C12.207 18.3703 11.2117 18.7826 10.1739 18.7826C9.13611 18.7826 8.14081 18.3703 7.40697 17.6365C6.67313 16.9027 6.26087 15.9074 6.26087 14.8696C6.30048 13.9366 6.52898 13.0214 6.93254 12.1793C7.3361 11.3372 7.90632 10.5858 8.60869 9.97043C9.33388 9.46708 9.92628 8.79549 10.3352 8.01314C10.7441 7.2308 10.9573 6.36101 10.9565 5.47826V2.34782C10.9565 1.72514 10.7092 1.12796 10.2689 0.687662C9.82855 0.247359 9.23137 0 8.60869 0H7.82608C7.61852 0 7.41946 0.0824531 7.2727 0.229221C7.12593 0.375988 7.04348 0.575048 7.04348 0.782608C7.04348 0.990169 7.12593 1.18923 7.2727 1.336C7.41946 1.48276 7.61852 1.56522 7.82608 1.56522H8.60869C8.81625 1.56522 9.01531 1.64767 9.16208 1.79444C9.30885 1.9412 9.3913 2.14026 9.3913 2.34782V5.47826C9.3913 5.99213 9.29009 6.50096 9.09344 6.97571C8.89679 7.45047 8.60856 7.88184 8.2452 8.2452C7.88184 8.60856 7.45047 8.89679 6.97571 9.09344C6.50096 9.29009 5.99213 9.3913 5.47826 9.3913ZM14.8696 12.5217C14.4544 12.5217 14.0563 12.3568 13.7628 12.0633C13.4692 11.7698 13.3043 11.3716 13.3043 10.9565C13.3043 10.5414 13.4692 10.1433 13.7628 9.84974C14.0563 9.55621 14.4544 9.3913 14.8696 9.3913C15.2847 9.3913 15.6828 9.55621 15.9763 9.84974C16.2699 10.1433 16.4348 10.5414 16.4348 10.9565C16.4348 11.3716 16.2699 11.7698 15.9763 12.0633C15.6828 12.3568 15.2847 12.5217 14.8696 12.5217Z" fill="#1ABF97"/>
</g>
<defs>
<clipPath id="clip0_0_29">
<rect width="18" height="20.3478" fill="white"/>
</clipPath>
</defs>
</svg>
