<svg width="21" height="23" viewBox="0 0 21 23" fill="none" xmlns="http://www.w3.org/2000/svg">
<path d="M17.1222 10.9889V4.59898C17.1223 4.51829 17.1064 4.43838 17.0756 4.36383C17.0447 4.28928 16.9994 4.22155 16.9423 4.16453L13.7244 0.946578C13.6094 0.831523 13.4535 0.76681 13.2909 0.766667H1.38C1.21733 0.766667 1.06133 0.831286 0.946308 0.946308C0.831286 1.06133 0.766667 1.21733 0.766667 1.38V20.5978C0.766667 20.7604 0.831286 20.9164 0.946308 21.0315C1.06133 21.1465 1.21733 21.2111 1.38 21.2111H9.96667M4.85556 8.94444H13.0333M4.85556 4.85556H8.94444M4.85556 13.0333H7.92222" stroke="#545454" stroke-width="1.5" stroke-linecap="round" stroke-linejoin="round"/>
<path d="M13.0333 0.766667V4.24222C13.0333 4.40489 13.098 4.56089 13.213 4.67591C13.328 4.79094 13.484 4.85556 13.6467 4.85556H17.1222M17.114 14.1833L19.7268 14.8468C19.9988 14.9163 20.1899 15.1636 20.1817 15.4437C20.0059 21.3297 16.6111 22.2333 16.6111 22.2333C16.6111 22.2333 13.2163 21.3297 13.0405 15.4437C13.0373 15.3074 13.0806 15.174 13.1633 15.0655C13.246 14.957 13.3631 14.8799 13.4954 14.8468L16.1082 14.1833C16.4384 14.0995 16.7839 14.0995 17.114 14.1833Z" stroke="#545454" stroke-width="1.5" stroke-linecap="round" stroke-linejoin="round"/>
</svg>
